<svg width="225.000000" height="225.000000" viewBox="0 0 225 225" fill="none" xmlns="http://www.w3.org/2000/svg" xmlns:xlink="http://www.w3.org/1999/xlink">
	<desc>
			Created with Pixso.
	</desc>
	<defs>
		<filter id="filter_73_3421_dd" x="0.000000" y="0.000000" width="225.000000" height="225.000000" filterUnits="userSpaceOnUse" color-interpolation-filters="sRGB">
			<feFlood flood-opacity="0" result="BackgroundImageFix"/>
			<feColorMatrix in="SourceAlpha" type="matrix" values="0 0 0 0 0 0 0 0 0 0 0 0 0 0 0 0 0 0 127 0" result="hardAlpha"/>
			<feOffset dx="0" dy="8"/>
			<feGaussianBlur stdDeviation="7.66667"/>
			<feComposite in2="hardAlpha" operator="out" k2="-1" k3="1"/>
			<feColorMatrix type="matrix" values="0 0 0 0 0.17255 0 0 0 0 0.50196 0 0 0 0 1 0 0 0 0.2 0"/>
			<feBlend mode="normal" in2="BackgroundImageFix" result="effect_dropShadow_1"/>
			<feBlend mode="normal" in="SourceGraphic" in2="effect_dropShadow_1" result="shape"/>
		</filter>
		<linearGradient x1="52.609463" y1="104.165001" x2="173.064346" y2="104.165001" id="paint_linear_73_3425_0" gradientUnits="userSpaceOnUse">
			<stop stop-color="#70BEFE" stop-opacity="0.000000"/>
			<stop offset="1.000000" stop-color="#76C1FE"/>
		</linearGradient>
	</defs>
	<g filter="url(#filter_73_3421_dd)">
		<rect id="Rectangle 55" x="23.000000" y="15.000000" rx="14.000000" width="179.000000" height="179.000000" fill="#FEFEFF" fill-opacity="1.000000"/>
	</g>
	<path id="Vector" d="M94.71 43.15C70.63 43.28 58.55 84.52 54.04 105.72C49.52 126.92 54.24 170.41 89.23 164.65C94.88 163.71 96.2 163.52 100.87 161.19C109.17 157.04 118.99 154.12 127.86 153.24C131.5 152.88 136.1 151.68 138.54 151.25C158.07 147.75 178 128.9 171.96 109.16C167.43 94.33 154.16 88.36 140.86 89.18C133.56 89.63 125.79 85.36 124.23 80.65C119.16 65.3 113.32 43.05 94.71 43.15Z" fill="url(#paint_linear_73_3425_0)" fill-opacity="1.000000" fill-rule="nonzero"/>
	<g opacity="0.100000">
		<path id="Vector" d="M158.57 62.17C160.64 62.17 162.32 63.84 162.32 65.9L162.32 127.11C162.32 128.02 162.1 128.92 161.68 129.72L159.63 133.67C159.19 134.54 157.95 134.54 157.51 133.67L155.46 129.72C155.04 128.92 154.83 128.02 154.83 127.11L154.83 65.9C154.83 63.84 156.5 62.17 158.57 62.17Z" fill="#3A85F4" fill-opacity="1.000000" fill-rule="nonzero"/>
	</g>
	<g opacity="0.100000">
		<path id="Vector" d="M144.57 158.54L78.78 158.54C76.14 158.54 74 156.41 74 153.77L74 66.7C74 64.07 76.14 61.94 78.78 61.94L144.57 61.94C147.22 61.94 149.36 64.07 149.36 66.7L149.36 153.77C149.36 156.4 147.22 158.54 144.57 158.54Z" fill="#3A85F4" fill-opacity="1.000000" fill-rule="nonzero"/>
	</g>
	<path id="Vector" d="M144.57 152.11L78.78 152.11C76.14 152.11 74 149.97 74 147.34L74 60.27C74 57.64 76.14 55.5 78.78 55.5L144.57 55.5C147.22 55.5 149.36 57.64 149.36 60.27L149.36 147.34C149.36 149.97 147.22 152.11 144.57 152.11Z" fill="#D4EBFF" fill-opacity="1.000000" fill-rule="nonzero"/>
	<path id="Vector" d="M144.57 153.3L78.78 153.3C75.49 153.3 72.8 150.62 72.8 147.34L72.8 60.27C72.8 56.98 75.49 54.31 78.78 54.31L109.24 54.31L144.57 54.31C147.87 54.31 150.55 56.98 150.55 60.27L150.55 147.34C150.55 150.62 147.87 153.3 144.57 153.3ZM78.78 56.69L109.24 56.69L144.57 56.69C146.55 56.69 148.16 58.3 148.16 60.27L148.16 147.34C148.16 149.31 146.55 150.91 144.57 150.91L78.78 150.91C76.8 150.91 75.19 149.31 75.19 147.34L75.19 60.27C75.19 58.3 76.8 56.69 78.78 56.69Z" fill="#3A85F4" fill-opacity="1.000000" fill-rule="evenodd"/>
	<path id="Vector" d="M143.62 62.41L143.62 145.19C143.62 145.85 143.08 146.38 142.42 146.38L128.2 146.38L95.2 146.38L80.94 146.38C80.28 146.38 79.74 145.85 79.74 145.19L79.74 62.41C79.74 61.75 80.28 61.22 80.94 61.22L95.2 61.22L128.16 61.22L142.42 61.22C143.08 61.22 143.62 61.75 143.62 62.41Z" fill="#FFFFFF" fill-opacity="1.000000" fill-rule="nonzero"/>
	<path id="Vector" d="M68.62 88.42L67.9 88.42L67.9 87.71C67.9 87.05 67.36 86.51 66.7 86.51C66.04 86.51 65.5 87.05 65.5 87.71L65.5 88.42L64.79 88.42C64.13 88.42 63.59 88.95 63.59 89.61C63.59 90.27 64.13 90.8 64.79 90.8L65.5 90.8L65.5 91.52C65.5 92.18 66.04 92.71 66.7 92.71C67.36 92.71 67.9 92.18 67.9 91.52L67.9 90.8L68.62 90.8C69.28 90.8 69.81 90.27 69.81 89.61C69.81 88.95 69.28 88.42 68.62 88.42Z" fill="#81C2FF" fill-opacity="1.000000" fill-rule="nonzero"/>
	<path id="Vector" d="M159.53 143.54L158.81 143.54L158.81 142.83C158.81 142.17 158.28 141.64 157.62 141.64C156.96 141.64 156.42 142.17 156.42 142.83L156.42 143.54L155.7 143.54C155.04 143.54 154.51 144.08 154.51 144.73C154.51 145.39 155.04 145.92 155.7 145.92L156.42 145.92L156.42 146.64C156.42 147.3 156.96 147.83 157.62 147.83C158.28 147.83 158.81 147.3 158.81 146.64L158.81 145.92L159.53 145.92C160.19 145.92 160.73 145.39 160.73 144.73C160.73 144.08 160.19 143.54 159.53 143.54Z" fill="#D4EBFF" fill-opacity="1.000000" fill-rule="nonzero"/>
	<path id="Vector" d="M64.07 99.07L63.35 99.07L63.35 98.36C63.35 97.7 62.81 97.17 62.15 97.17C61.49 97.17 60.96 97.7 60.96 98.36L60.96 99.07L60.24 99.07C59.58 99.07 59.04 99.61 59.04 100.26C59.04 100.92 59.58 101.46 60.24 101.46L60.96 101.46L60.96 102.17C60.96 102.83 61.49 103.36 62.15 103.36C62.81 103.36 63.35 102.83 63.35 102.17L63.35 101.46L64.07 101.46C64.73 101.46 65.26 100.92 65.26 100.26C65.26 99.61 64.73 99.07 64.07 99.07Z" fill="#D4EBFF" fill-opacity="1.000000" fill-rule="nonzero"/>
	<path id="Vector" d="M65.98 60.98C65.68 60.98 65.37 60.87 65.14 60.63L64.07 59.57L63 60.63C62.54 61.1 61.78 61.1 61.31 60.63C60.84 60.17 60.84 59.41 61.31 58.95L63.22 57.04C63.69 56.58 64.45 56.58 64.92 57.04L66.83 58.95C67.3 59.41 67.3 60.17 66.83 60.63C66.6 60.87 66.29 60.98 65.98 60.98Z" fill="#D4EBFF" fill-opacity="1.000000" fill-rule="nonzero"/>
	<path id="Vector" d="M166.14 139.28C165.84 139.28 165.53 139.16 165.3 138.92L164.23 137.86L163.16 138.92C162.7 139.39 161.94 139.39 161.47 138.92C161 138.46 161 137.71 161.47 137.24L163.39 135.33C163.85 134.87 164.61 134.87 165.08 135.33L166.99 137.24C167.46 137.71 167.46 138.46 166.99 138.92C166.76 139.16 166.45 139.28 166.14 139.28Z" fill="#D4EBFF" fill-opacity="1.000000" fill-rule="nonzero"/>
	<path id="Vector" d="M138.82 97.61L84.63 97.61C83.97 97.61 83.43 97.08 83.43 96.42C83.43 95.76 83.97 95.23 84.63 95.23L138.82 95.23C139.49 95.23 140.02 95.76 140.02 96.42C140.02 97.08 139.49 97.61 138.82 97.61Z" fill="#5A5A5A" fill-opacity="1.000000" fill-rule="nonzero"/>
	<path id="Vector" d="M138.82 73.53L84.63 73.53C83.97 73.53 83.43 73 83.43 72.34C83.43 71.68 83.97 71.15 84.63 71.15L138.82 71.15C139.49 71.15 140.02 71.68 140.02 72.34C140.02 73 139.49 73.53 138.82 73.53Z" fill="#5A5A5A" fill-opacity="1.000000" fill-rule="nonzero"/>
	<path id="Vector" d="M88.58 90.45L84.63 90.45C83.97 90.45 83.43 89.92 83.43 89.26C83.43 88.6 83.97 88.07 84.63 88.07L88.58 88.07C89.24 88.07 89.78 88.6 89.78 89.26C89.78 89.92 89.24 90.45 88.58 90.45Z" fill="#5A5A5A" fill-opacity="1.000000" fill-rule="nonzero"/>
	<path id="Vector" d="M113.95 99.88L84.68 99.88C84.06 99.88 83.5 100.33 83.44 100.95C83.37 101.66 83.93 102.26 84.63 102.26L113.95 102.26C114.61 102.26 115.15 101.73 115.15 101.07C115.15 100.41 114.61 99.88 113.95 99.88Z" fill="#5A5A5A" fill-opacity="1.000000" fill-rule="nonzero"/>
	<path id="Vector" d="M131.6 99.88L120.05 99.88C119.39 99.88 118.85 100.41 118.85 101.07C118.85 101.73 119.39 102.26 120.05 102.26L131.65 102.26C132.35 102.26 132.91 101.66 132.84 100.95C132.78 100.33 132.22 99.88 131.6 99.88Z" fill="#5A5A5A" fill-opacity="1.000000" fill-rule="nonzero"/>
	<path id="Vector" d="M113.95 75.8L84.68 75.8C84.06 75.8 83.5 76.25 83.44 76.87C83.37 77.58 83.93 78.18 84.63 78.18L113.95 78.18C114.61 78.18 115.15 77.65 115.15 76.99C115.15 76.33 114.61 75.8 113.95 75.8Z" fill="#5A5A5A" fill-opacity="1.000000" fill-rule="nonzero"/>
	<path id="Vector" d="M131.6 75.8L120.05 75.8C119.39 75.8 118.85 76.33 118.85 76.99C118.85 77.65 119.39 78.18 120.05 78.18L131.65 78.18C132.35 78.18 132.91 77.58 132.84 76.87C132.78 76.25 132.22 75.8 131.6 75.8Z" fill="#5A5A5A" fill-opacity="1.000000" fill-rule="nonzero"/>
	<path id="Vector" d="M138.82 106.91L84.63 106.91C83.97 106.91 83.43 106.37 83.43 105.72C83.43 105.06 83.97 104.52 84.63 104.52L138.82 104.52C139.49 104.52 140.02 105.06 140.02 105.72C140.02 106.37 139.49 106.91 138.82 106.91Z" fill="#5A5A5A" fill-opacity="1.000000" fill-rule="nonzero"/>
	<path id="Vector" d="M138.82 82.83L84.63 82.83C83.97 82.83 83.43 82.29 83.43 81.64C83.43 80.98 83.97 80.44 84.63 80.44L138.82 80.44C139.49 80.44 140.02 80.98 140.02 81.64C140.02 82.29 139.49 82.83 138.82 82.83Z" fill="#5A5A5A" fill-opacity="1.000000" fill-rule="nonzero"/>
	<path id="Vector" d="M138.82 122.36L84.63 122.36C83.97 122.36 83.43 121.82 83.43 121.16C83.43 120.51 83.97 119.97 84.63 119.97L138.82 119.97C139.49 119.97 140.02 120.51 140.02 121.16C140.02 121.82 139.49 122.36 138.82 122.36Z" fill="#5A5A5A" fill-opacity="1.000000" fill-rule="nonzero"/>
	<path id="Vector" d="M88.58 115.2L84.63 115.2C83.97 115.2 83.43 114.67 83.43 114.01C83.43 113.35 83.97 112.82 84.63 112.82L88.58 112.82C89.24 112.82 89.78 113.35 89.78 114.01C89.78 114.67 89.24 115.2 88.58 115.2Z" fill="#5A5A5A" fill-opacity="1.000000" fill-rule="nonzero"/>
	<path id="Vector" d="M113.95 124.62L84.68 124.62C84.06 124.62 83.5 125.08 83.44 125.7C83.37 126.41 83.93 127 84.63 127L113.95 127C114.61 127 115.15 126.47 115.15 125.81C115.15 125.15 114.61 124.62 113.95 124.62Z" fill="#5A5A5A" fill-opacity="1.000000" fill-rule="nonzero"/>
	<path id="Vector" d="M131.6 124.62L120.05 124.62C119.39 124.62 118.85 125.15 118.85 125.81C118.85 126.47 119.39 127 120.05 127L131.65 127C132.35 127 132.91 126.41 132.84 125.7C132.78 125.08 132.22 124.62 131.6 124.62Z" fill="#5A5A5A" fill-opacity="1.000000" fill-rule="nonzero"/>
	<path id="Vector" d="M138.82 131.65L84.63 131.65C83.97 131.65 83.43 131.12 83.43 130.46C83.43 129.8 83.97 129.27 84.63 129.27L138.82 129.27C139.49 129.27 140.02 129.8 140.02 130.46C140.02 131.12 139.49 131.65 138.82 131.65Z" fill="#5A5A5A" fill-opacity="1.000000" fill-rule="nonzero"/>
	<path id="Vector" d="M158.57 55.74C160.64 55.74 162.32 57.41 162.32 59.47L162.32 120.68C162.32 121.59 162.1 122.48 161.68 123.29L159.64 127.24C159.19 128.1 157.95 128.1 157.51 127.24L155.46 123.29C155.05 122.48 154.83 121.59 154.83 120.68L154.83 59.47C154.83 57.41 156.5 55.74 158.57 55.74Z" fill="#FFFFFF" fill-opacity="1.000000" fill-rule="nonzero"/>
	<path id="Vector" d="M154.83 112.28L162.32 112.28L162.32 115.64L154.83 115.64L154.83 112.28Z" fill="#D4EBFF" fill-opacity="1.000000" fill-rule="nonzero"/>
	<path id="Vector" d="M162.32 64.2L162.32 59.47C162.32 57.41 160.64 55.74 158.57 55.74C156.5 55.74 154.83 57.41 154.83 59.47L154.83 64.2L162.32 64.2Z" fill="#D4EBFF" fill-opacity="1.000000" fill-rule="nonzero"/>
	<path id="Vector" d="M158.57 129.08C157.67 129.08 156.86 128.58 156.45 127.79L154.4 123.83C153.9 122.86 153.63 121.77 153.63 120.68L153.63 89.46L153.63 59.47C153.63 56.76 155.85 54.55 158.57 54.55C161.3 54.55 163.51 56.76 163.51 59.47L163.51 120.68C163.51 121.77 163.25 122.86 162.74 123.83L160.7 127.79C160.29 128.58 159.47 129.08 158.57 129.08ZM156.02 120.68L156.02 89.46L156.02 59.47C156.02 58.07 157.17 56.93 158.57 56.93C159.98 56.93 161.12 58.07 161.12 59.47L161.12 120.68C161.12 121.39 160.95 122.11 160.62 122.74L158.57 126.7L156.53 122.74C156.2 122.11 156.02 121.39 156.02 120.68Z" fill="#3A85F4" fill-opacity="1.000000" fill-rule="evenodd"/>
	<path id="Vector" d="M111.68 140.7C111.36 140.7 111.06 140.57 110.83 140.35L108.5 138.02C108.03 137.56 108.03 136.8 108.5 136.34C108.97 135.87 109.72 135.87 110.19 136.34L111.68 137.82L113.17 136.34C113.63 135.87 114.39 135.87 114.86 136.34C115.32 136.8 115.32 137.56 114.86 138.02L112.53 140.35C112.3 140.57 112 140.7 111.68 140.7Z" fill="#3A85F4" fill-opacity="1.000000" fill-rule="nonzero"/>
</svg>
