<svg width="225.000000" height="225.000000" viewBox="0 0 225 225" fill="none" xmlns="http://www.w3.org/2000/svg" xmlns:xlink="http://www.w3.org/1999/xlink">
	<desc>
			Created with Pixso.
	</desc>
	<defs>
		<filter id="filter_73_3309_dd" x="0.000000" y="0.000000" width="225.000000" height="225.000000" filterUnits="userSpaceOnUse" color-interpolation-filters="sRGB">
			<feFlood flood-opacity="0" result="BackgroundImageFix"/>
			<feColorMatrix in="SourceAlpha" type="matrix" values="0 0 0 0 0 0 0 0 0 0 0 0 0 0 0 0 0 0 127 0" result="hardAlpha"/>
			<feOffset dx="0" dy="8"/>
			<feGaussianBlur stdDeviation="7.66667"/>
			<feComposite in2="hardAlpha" operator="out" k2="-1" k3="1"/>
			<feColorMatrix type="matrix" values="0 0 0 0 0.17255 0 0 0 0 0.50196 0 0 0 0 1 0 0 0 0.2 0"/>
			<feBlend mode="normal" in2="BackgroundImageFix" result="effect_dropShadow_1"/>
			<feBlend mode="normal" in="SourceGraphic" in2="effect_dropShadow_1" result="shape"/>
		</filter>
		<linearGradient x1="141.048584" y1="145.101135" x2="60.901207" y2="53.577721" id="paint_linear_73_3311_0" gradientUnits="userSpaceOnUse">
			<stop stop-color="#5EB6FE" stop-opacity="0.000000"/>
			<stop offset="1.000000" stop-color="#5FB6FE"/>
		</linearGradient>
	</defs>
	<g filter="url(#filter_73_3309_dd)">
		<rect id="фон" x="23.000000" y="15.000000" rx="14.000000" width="179.000000" height="179.000000" fill="#FEFEFF" fill-opacity="1.000000"/>
	</g>
	<path id="Vector" d="M130.14 64.32C129.84 64.32 129.55 64.32 129.25 64.32C121.89 64.46 114.8 61.8 109.08 57.2C104.01 53.11 97.54 50.68 90.49 50.73C74.41 50.83 61.16 64.32 61.43 80.3C61.5 84.6 62.51 88.67 64.27 92.33C67.26 98.55 66.62 105.96 62.46 111.48C60.74 113.76 59.34 116.33 58.33 119.15C52.94 134.19 60.9 150.9 76.01 156.28C91.41 161.76 108.29 153.66 113.57 138.34C113.96 137.2 114.28 136.06 114.52 134.92C116.08 127.65 122.46 122.44 129.93 122.47C130 122.47 130.07 122.47 130.14 122.47C150.87 122.47 167.68 109.45 167.68 93.39C167.68 77.33 150.87 64.32 130.14 64.32Z" fill="url(#paint_linear_73_3311_0)" fill-opacity="1.000000" fill-rule="nonzero"/>
	<path id="Vector" d="" fill="#FFFFFF" fill-opacity="0" fill-rule="evenodd"/>
	<path id="Vector" d="M99.53 64.39L98.88 64.39L98.88 63.74C98.88 63.14 98.39 62.66 97.79 62.66C97.19 62.66 96.71 63.14 96.71 63.74L96.71 64.39L96.06 64.39C95.46 64.39 94.97 64.87 94.97 65.46C94.97 66.06 95.46 66.54 96.06 66.54L96.71 66.54L96.71 67.19C96.71 67.78 97.19 68.27 97.79 68.27C98.39 68.27 98.88 67.78 98.88 67.19L98.88 66.54L99.53 66.54C100.13 66.54 100.61 66.06 100.61 65.46C100.61 64.87 100.13 64.39 99.53 64.39Z" fill="#C4E2FF" fill-opacity="1.000000" fill-rule="nonzero"/>
	<path id="Vector" d="" fill="#FFFFFF" fill-opacity="0" fill-rule="evenodd"/>
	<path id="Vector" d="M127.4 136.95L126.75 136.95L126.75 136.31C126.75 135.71 126.27 135.23 125.67 135.23C125.07 135.23 124.58 135.71 124.58 136.31L124.58 136.95L123.93 136.95C123.33 136.95 122.85 137.44 122.85 138.03C122.85 138.63 123.33 139.11 123.93 139.11L124.58 139.11L124.58 139.75C124.58 140.35 125.07 140.83 125.67 140.83C126.27 140.83 126.75 140.35 126.75 139.75L126.75 139.11L127.4 139.11C128 139.11 128.49 138.63 128.49 138.03C128.49 137.44 128 136.95 127.4 136.95Z" fill="#81C2FF" fill-opacity="1.000000" fill-rule="nonzero"/>
	<path id="Vector" d="" fill="#FFFFFF" fill-opacity="0" fill-rule="evenodd"/>
	<path id="Vector" d="M77.35 136.95L76.7 136.95L76.7 136.31C76.7 135.71 76.21 135.23 75.61 135.23C75.01 135.23 74.53 135.71 74.53 136.31L74.53 136.95L73.88 136.95C73.28 136.95 72.79 137.44 72.79 138.03C72.79 138.63 73.28 139.11 73.88 139.11L74.53 139.11L74.53 139.75C74.53 140.35 75.01 140.83 75.61 140.83C76.21 140.83 76.7 140.35 76.7 139.75L76.7 139.11L77.35 139.11C77.94 139.11 78.43 138.63 78.43 138.03C78.43 137.44 77.94 136.95 77.35 136.95Z" fill="#81C2FF" fill-opacity="1.000000" fill-rule="nonzero"/>
	<path id="Vector" d="" fill="#FFFFFF" fill-opacity="0" fill-rule="evenodd"/>
	<path id="Vector" d="M136.45 143.92C136.17 143.92 135.89 143.82 135.68 143.61L134.72 142.65L133.75 143.61C133.32 144.03 132.64 144.03 132.21 143.61C131.79 143.19 131.79 142.5 132.21 142.08L133.95 140.36C134.37 139.94 135.06 139.94 135.48 140.36L137.22 142.08C137.64 142.5 137.64 143.19 137.22 143.61C137 143.82 136.73 143.92 136.45 143.92Z" fill="#81C2FF" fill-opacity="1.000000" fill-rule="nonzero"/>
	<path id="Vector" d="" fill="#FFFFFF" fill-opacity="0" fill-rule="evenodd"/>
	<path id="Vector" d="M89.37 62.78C89.09 62.78 88.82 62.68 88.6 62.47L87.64 61.5L86.67 62.47C86.25 62.89 85.56 62.89 85.14 62.47C84.71 62.05 84.71 61.36 85.14 60.94L86.87 59.22C87.29 58.8 87.98 58.8 88.4 59.22L90.14 60.94C90.56 61.36 90.56 62.05 90.14 62.47C89.93 62.68 89.65 62.78 89.37 62.78Z" fill="#BCDFFF" fill-opacity="1.000000" fill-rule="nonzero"/>
	<path id="Vector" d="" fill="#FFFFFF" fill-opacity="0" fill-rule="evenodd"/>
	<path id="Vector" d="M103.07 124.73L119.85 124.73L119.85 146.08L103.07 146.08L103.07 124.73Z" fill="#FFFFFF" fill-opacity="1.000000" fill-rule="nonzero"/>
	<path id="Vector" d="" fill="#FFFFFF" fill-opacity="0" fill-rule="evenodd"/>
	<g opacity="0.100000">
		<path id="Vector" d="M154.02 61.12C149.27 61.12 145.34 64.64 144.72 69.2L117.76 69.2C116.57 69.2 115.59 70.17 115.59 71.35L115.59 80.68L109.75 80.68C109.49 79.77 108.66 79.11 107.67 79.11L79.1 79.11C77.78 75.55 74.34 73.01 70.29 73.01C65.11 73.01 60.91 77.18 60.91 82.33C60.91 86.22 63.3 89.55 66.69 90.95L66.69 112.38C66.69 113.57 67.66 114.53 68.86 114.53L68.94 114.53L68.94 129.16C68.94 130.94 70.4 132.39 72.2 132.39L96.37 132.39L96.37 134.8C96.37 135.99 97.35 136.96 98.54 136.96L103.07 136.96L103.07 149.03L94.54 149.03C93.32 149.03 92.33 150.01 92.33 151.22C92.33 152.44 93.32 153.42 94.54 153.42L128.38 153.42C129.6 153.42 130.59 152.44 130.59 151.22C130.59 150.01 129.6 149.03 128.38 149.03L119.85 149.03L119.85 136.96L124.38 136.96C125.58 136.96 126.55 135.99 126.55 134.8L126.55 132.39L150.72 132.39C152.52 132.39 153.97 130.94 153.97 129.16L153.97 96.07L155.34 96.07C156.53 96.07 157.5 95.11 157.5 93.92L157.5 79.11C160.96 77.74 163.41 74.38 163.41 70.45C163.41 65.3 159.21 61.12 154.02 61.12Z" fill="#3A85F4" fill-opacity="1.000000" fill-rule="nonzero"/>
		<path id="Vector" d="" fill="#FFFFFF" fill-opacity="0" fill-rule="evenodd"/>
	</g>
	<path id="Vector" d="M124.38 131.14L98.54 131.14C97.35 131.14 96.38 130.17 96.38 128.98L96.38 124.1L126.55 124.1L126.55 128.98C126.55 130.17 125.58 131.14 124.38 131.14Z" fill="#FFFFFF" fill-opacity="1.000000" fill-rule="nonzero"/>
	<path id="Vector" d="" fill="#FFFFFF" fill-opacity="0" fill-rule="evenodd"/>
	<path id="Vector" d="M150.72 126.57L72.2 126.57C70.4 126.57 68.94 125.13 68.94 123.34L68.94 78.09C68.94 76.31 70.4 74.86 72.2 74.86L150.72 74.86C152.52 74.86 153.97 76.31 153.97 78.09L153.97 123.34C153.97 125.13 152.52 126.57 150.72 126.57Z" fill="#81C2FF" fill-opacity="1.000000" fill-rule="nonzero"/>
	<path id="Vector" d="" fill="#FFFFFF" fill-opacity="0" fill-rule="evenodd"/>
	<path id="Vector" d="M153.97 78.09L153.97 117.87L68.95 117.87L68.95 78.09C68.95 76.31 70.4 74.86 72.2 74.86L150.72 74.86C152.52 74.86 153.97 76.31 153.97 78.09Z" fill="#FFFFFF" fill-opacity="1.000000" fill-rule="nonzero"/>
	<path id="Vector" d="" fill="#FFFFFF" fill-opacity="0" fill-rule="evenodd"/>
	<path id="Vector" d="M128.38 147.6L94.54 147.6C93.32 147.6 92.33 146.62 92.33 145.4C92.33 144.19 93.32 143.21 94.54 143.21L128.38 143.21C129.6 143.21 130.59 144.19 130.59 145.4C130.59 146.62 129.6 147.6 128.38 147.6Z" fill="#FFFFFF" fill-opacity="1.000000" fill-rule="nonzero"/>
	<path id="Vector" d="" fill="#FFFFFF" fill-opacity="0" fill-rule="evenodd"/>
	<path id="Vector" d="M109.84 75.44L109.84 106.56C109.84 107.75 108.86 108.72 107.67 108.72L97.53 108.72L95.7 114.05C95.13 115.74 92.73 115.74 92.15 114.05L90.33 108.72L68.86 108.72C67.66 108.72 66.69 107.75 66.69 106.56L66.69 75.44C66.69 74.25 67.66 73.29 68.86 73.29L107.67 73.29C108.86 73.29 109.84 74.25 109.84 75.44Z" fill="#FFFFFF" fill-opacity="1.000000" fill-rule="nonzero"/>
	<path id="Vector" d="" fill="#FFFFFF" fill-opacity="0" fill-rule="evenodd"/>
	<path id="Vector" d="M74.44 102.77L103.64 102.77C104.24 102.77 104.72 102.28 104.72 101.69C104.72 101.09 104.24 100.61 103.64 100.61L74.44 100.61C73.84 100.61 73.36 101.09 73.36 101.69C73.36 102.28 73.84 102.77 74.44 102.77Z" fill="#5A5A5A" fill-opacity="1.000000" fill-rule="nonzero"/>
	<path id="Vector" d="" fill="#FFFFFF" fill-opacity="0" fill-rule="evenodd"/>
	<path id="Vector" d="M74.44 91.47L103.64 91.47C104.24 91.47 104.72 90.99 104.72 90.39C104.72 89.8 104.24 89.31 103.64 89.31L74.44 89.31C73.84 89.31 73.36 89.8 73.36 90.39C73.36 90.99 73.84 91.47 74.44 91.47Z" fill="#5A5A5A" fill-opacity="1.000000" fill-rule="nonzero"/>
	<path id="Vector" d="" fill="#FFFFFF" fill-opacity="0" fill-rule="evenodd"/>
	<path id="Vector" d="M74.44 95.24L103.64 95.24C104.24 95.24 104.72 94.76 104.72 94.16C104.72 93.57 104.24 93.09 103.64 93.09L74.44 93.09C73.84 93.09 73.36 93.57 73.36 94.16C73.36 94.76 73.84 95.24 74.44 95.24Z" fill="#5A5A5A" fill-opacity="1.000000" fill-rule="nonzero"/>
	<path id="Vector" d="" fill="#FFFFFF" fill-opacity="0" fill-rule="evenodd"/>
	<path id="Vector" d="M92.9 83.92L103.64 83.92C104.24 83.92 104.72 83.44 104.72 82.85C104.72 82.25 104.24 81.77 103.64 81.77L92.9 81.77C92.3 81.77 91.82 82.25 91.82 82.85C91.82 83.44 92.3 83.92 92.9 83.92Z" fill="#5A5A5A" fill-opacity="1.000000" fill-rule="nonzero"/>
	<path id="Vector" d="" fill="#FFFFFF" fill-opacity="0" fill-rule="evenodd"/>
	<path id="Vector" d="M104.72 86.62C104.72 87.21 104.24 87.7 103.64 87.7L74.44 87.7C73.84 87.7 73.35 87.21 73.35 86.62C73.35 86.02 73.84 85.54 74.44 85.54L103.64 85.54C104.24 85.54 104.72 86.02 104.72 86.62Z" fill="#5A5A5A" fill-opacity="1.000000" fill-rule="nonzero"/>
	<path id="Vector" d="" fill="#FFFFFF" fill-opacity="0" fill-rule="evenodd"/>
	<path id="Vector" d="M157.5 65.54L157.5 88.1C157.5 89.29 156.53 90.25 155.33 90.25L132.9 90.25L131.08 95.59C130.5 97.27 128.1 97.27 127.53 95.59L125.7 90.25L117.76 90.25C116.56 90.25 115.59 89.29 115.59 88.1L115.59 65.54C115.59 64.35 116.56 63.38 117.76 63.38L155.33 63.38C156.53 63.38 157.5 64.35 157.5 65.54Z" fill="#FFFFFF" fill-opacity="1.000000" fill-rule="nonzero"/>
	<path id="Vector" d="" fill="#FFFFFF" fill-opacity="0" fill-rule="evenodd"/>
	<path id="Vector" d="M70.29 85.84C75.48 85.84 79.68 81.67 79.68 76.52C79.68 71.36 75.48 67.19 70.29 67.19C65.11 67.19 60.91 71.36 60.91 76.52C60.91 81.67 65.11 85.84 70.29 85.84Z" fill="#D4EBFF" fill-opacity="1.000000" fill-rule="nonzero"/>
	<path id="Vector" d="" fill="#FFFFFF" fill-opacity="0" fill-rule="evenodd"/>
	<path id="Vector" d="M147.46 103.7C148.06 103.7 148.54 103.22 148.54 102.62C148.54 102.03 148.06 101.54 147.46 101.54C146.86 101.54 146.38 102.03 146.38 102.62C146.38 103.22 146.86 103.7 147.46 103.7Z" fill="#5A5A5A" fill-opacity="1.000000" fill-rule="nonzero"/>
	<path id="Vector" d="" fill="#FFFFFF" fill-opacity="0" fill-rule="evenodd"/>
	<path id="Vector" d="M143.94 103.7C144.54 103.7 145.02 103.22 145.02 102.62C145.02 102.03 144.54 101.54 143.94 101.54C143.34 101.54 142.85 102.03 142.85 102.62C142.85 103.22 143.34 103.7 143.94 103.7Z" fill="#5A5A5A" fill-opacity="1.000000" fill-rule="nonzero"/>
	<path id="Vector" d="" fill="#FFFFFF" fill-opacity="0" fill-rule="evenodd"/>
	<path id="Vector" d="M137.06 107.59L147.8 107.59C148.4 107.59 148.88 107.11 148.88 106.51C148.88 105.92 148.4 105.43 147.8 105.43L137.06 105.43C136.46 105.43 135.97 105.92 135.97 106.51C135.97 107.11 136.46 107.59 137.06 107.59Z" fill="#5A5A5A" fill-opacity="1.000000" fill-rule="nonzero"/>
	<path id="Vector" d="" fill="#FFFFFF" fill-opacity="0" fill-rule="evenodd"/>
	<path id="Vector" d="M131.2 111.36L147.8 111.36C148.4 111.36 148.88 110.88 148.88 110.28C148.88 109.69 148.4 109.21 147.8 109.21L131.2 109.21C130.6 109.21 130.12 109.69 130.12 110.28C130.12 110.88 130.6 111.36 131.2 111.36Z" fill="#5A5A5A" fill-opacity="1.000000" fill-rule="nonzero"/>
	<path id="Vector" d="" fill="#FFFFFF" fill-opacity="0" fill-rule="evenodd"/>
	<path id="Vector" d="M154.02 73.96C159.21 73.96 163.41 69.78 163.41 64.63C163.41 59.48 159.21 55.31 154.02 55.31C148.84 55.31 144.64 59.48 144.64 64.63C144.64 69.78 148.84 73.96 154.02 73.96Z" fill="#D5EBFF" fill-opacity="1.000000" fill-rule="nonzero"/>
	<path id="Vector" d="" fill="#FFFFFF" fill-opacity="0" fill-rule="evenodd"/>
	<path id="Vector" d="M164.49 64.63C164.49 58.9 159.79 54.23 154.02 54.23C149.05 54.23 144.89 57.68 143.82 62.3L117.76 62.3C115.97 62.3 114.51 63.75 114.51 65.54L114.51 73.78L110.45 73.78C109.88 72.84 108.84 72.21 107.66 72.21L79.82 72.21C78.17 68.62 74.52 66.11 70.29 66.11C64.52 66.11 59.82 70.78 59.82 76.52C59.82 80.58 62.18 84.1 65.61 85.82L65.61 106.56C65.61 108 66.55 109.21 67.86 109.64L67.86 123.34C67.86 125.72 69.8 127.65 72.2 127.65L95.29 127.65L95.29 128.98C95.29 130.76 96.75 132.21 98.54 132.21L101.99 132.21L101.99 142.13L94.54 142.13C92.72 142.13 91.24 143.6 91.24 145.4C91.24 147.21 92.72 148.68 94.54 148.68L128.38 148.68C130.2 148.68 131.68 147.21 131.68 145.4C131.68 143.6 130.2 142.13 128.38 142.13L120.93 142.13L120.93 132.21L124.38 132.21C126.17 132.21 127.63 130.76 127.63 128.98L127.63 127.65L150.72 127.65C153.11 127.65 155.06 125.72 155.06 123.34L155.06 91.33L155.33 91.33C157.13 91.33 158.59 89.88 158.59 88.1L158.59 73.99C162.08 72.3 164.49 68.74 164.49 64.63ZM61.99 76.52C61.99 71.97 65.72 68.27 70.29 68.27C74.87 68.27 78.6 71.97 78.6 76.52C78.6 81.07 74.87 84.77 70.29 84.77C65.72 84.77 61.99 81.07 61.99 76.52ZM67.77 86.61C68.58 86.81 69.43 86.92 70.29 86.92C76.07 86.92 80.76 82.25 80.76 76.52C80.76 75.78 80.68 75.06 80.54 74.37L107.66 74.37C108.26 74.37 108.75 74.85 108.75 75.44L108.75 106.56C108.75 107.15 108.26 107.64 107.66 107.64L97.53 107.64C97.06 107.64 96.65 107.93 96.5 108.37L94.67 113.7C94.5 114.2 94.06 114.24 93.92 114.24C93.79 114.24 93.34 114.2 93.17 113.7L91.35 108.37C91.2 107.93 90.79 107.64 90.32 107.64L68.86 107.64C68.26 107.64 67.78 107.15 67.78 106.56L67.77 86.61ZM119.85 144.28L128.38 144.28C129 144.28 129.51 144.79 129.51 145.4C129.51 146.02 129 146.52 128.38 146.52L94.54 146.52C93.91 146.52 93.41 146.02 93.41 145.4C93.41 144.79 93.91 144.28 94.54 144.28L113.21 144.28C113.81 144.28 114.29 143.8 114.29 143.21C114.29 142.61 113.81 142.13 113.21 142.13L104.15 142.13L104.15 132.21L118.76 132.21L118.76 143.21C118.76 143.8 119.25 144.28 119.85 144.28ZM125.46 128.98C125.46 129.58 124.97 130.06 124.38 130.06L98.54 130.06C97.94 130.06 97.46 129.58 97.46 128.98L97.46 127.65L125.46 127.65L125.46 128.98ZM156.42 88.1C156.42 88.69 155.93 89.18 155.33 89.18L132.9 89.18C132.44 89.18 132.03 89.47 131.88 89.91L130.05 95.24C129.88 95.73 129.44 95.77 129.3 95.77C129.17 95.77 128.72 95.73 128.55 95.24L126.73 89.91C126.58 89.47 126.17 89.18 125.7 89.18L117.76 89.18C117.16 89.18 116.68 88.69 116.68 88.1L116.68 75.07C116.68 74.48 116.19 73.99 115.59 73.99C114.99 73.99 114.51 74.48 114.51 75.07L114.51 88.1C114.51 89.88 115.97 91.33 117.76 91.33L124.92 91.33L126.5 95.93C126.91 97.15 128.01 97.93 129.3 97.93C130.59 97.93 131.69 97.15 132.11 95.93L133.68 91.33L152.89 91.33L152.89 123.34C152.89 124.53 151.92 125.5 150.72 125.5L72.2 125.5C71 125.5 70.03 124.53 70.03 123.34L70.03 109.79L89.55 109.79L91.12 114.4C91.54 115.61 92.64 116.39 93.92 116.39C95.21 116.39 96.31 115.61 96.73 114.4L98.3 109.79L107.66 109.79C109.46 109.79 110.92 108.34 110.92 106.56L110.92 75.94L115.59 75.94C116 75.94 116.38 75.71 116.56 75.34C116.64 75.19 116.68 75.03 116.68 74.86L116.68 65.54C116.68 64.94 117.16 64.46 117.76 64.46L143.55 64.46C143.55 64.52 143.55 64.57 143.55 64.63C143.55 70.37 148.25 75.04 154.02 75.04C154.85 75.04 155.65 74.94 156.42 74.76L156.42 88.1ZM154.02 72.88C149.44 72.88 145.72 69.18 145.72 64.63C145.72 60.08 149.44 56.38 154.02 56.38C158.6 56.38 162.32 60.08 162.32 64.63C162.32 69.18 158.6 72.88 154.02 72.88Z" fill="#3A85F4" fill-opacity="1.000000" fill-rule="nonzero"/>
	<path id="Vector" d="" fill="#FFFFFF" fill-opacity="0" fill-rule="evenodd"/>
	<path id="Vector" d="M151.13 79.9L121.93 79.9C121.33 79.9 120.85 79.41 120.85 78.82C120.85 78.22 121.33 77.74 121.93 77.74L151.13 77.74C151.73 77.74 152.22 78.22 152.22 78.82C152.22 79.41 151.73 79.9 151.13 79.9Z" fill="#5A5A5A" fill-opacity="1.000000" fill-rule="nonzero"/>
	<path id="Vector" d="" fill="#FFFFFF" fill-opacity="0" fill-rule="evenodd"/>
	<path id="Vector" d="M151.13 83.67L121.93 83.67C121.33 83.67 120.85 83.19 120.85 82.59C120.85 82 121.33 81.51 121.93 81.51L151.13 81.51C151.73 81.51 152.22 82 152.22 82.59C152.22 83.19 151.73 83.67 151.13 83.67Z" fill="#5A5A5A" fill-opacity="1.000000" fill-rule="nonzero"/>
	<path id="Vector" d="" fill="#FFFFFF" fill-opacity="0" fill-rule="evenodd"/>
	<path id="Vector" d="M152.22 75.05C152.22 75.64 151.73 76.12 151.13 76.12L121.93 76.12C121.33 76.12 120.85 75.64 120.85 75.05C120.85 74.45 121.33 73.97 121.93 73.97L151.13 73.97C151.73 73.97 152.22 74.45 152.22 75.05Z" fill="#5A5A5A" fill-opacity="1.000000" fill-rule="nonzero"/>
	<path id="Vector" d="" fill="#FFFFFF" fill-opacity="0" fill-rule="evenodd"/>
	<path id="Vector" d="M132.67 72.35L121.93 72.35C121.33 72.35 120.85 71.87 120.85 71.28C120.85 70.68 121.33 70.2 121.93 70.2L132.67 70.2C133.27 70.2 133.76 70.68 133.76 71.28C133.76 71.87 133.27 72.35 132.67 72.35Z" fill="#5A5A5A" fill-opacity="1.000000" fill-rule="nonzero"/>
	<path id="Vector" d="" fill="#FFFFFF" fill-opacity="0" fill-rule="evenodd"/>
	<path id="Vector" d="M151.87 141.05L154.23 138.7L161.39 145.84L159.03 148.19L151.87 141.05Z" fill="#FFFFFF" fill-opacity="1.000000" fill-rule="nonzero"/>
	<path id="Vector" d="M154.16 140.97C148.78 146.33 140.04 146.33 134.66 140.97C129.29 135.62 129.29 126.91 134.66 121.55C140.04 116.2 148.78 116.2 154.16 121.55C159.53 126.91 159.53 135.62 154.16 140.97Z" fill="#81C2FF" fill-opacity="1.000000" fill-rule="nonzero"/>
	<path id="Vector" d="M154.77 131.26C154.77 136.97 150.13 141.59 144.4 141.59C138.68 141.59 134.04 136.97 134.04 131.26C134.04 125.56 138.68 120.94 144.4 120.94C150.13 120.94 154.77 125.56 154.77 131.26Z" fill="#FFFFFF" fill-opacity="0.860000" fill-rule="evenodd"/>
	<path id="Vector" d="M150.83 123.15L136.27 137.65C135.69 136.93 135.23 136.14 134.88 135.32L148.48 121.77C149.31 122.12 150.1 122.58 150.83 123.15Z" fill="#FFFFFF" fill-opacity="1.000000" fill-rule="nonzero"/>
	<path id="Vector" d="M154.68 129.89L143.03 141.5C140.94 141.22 138.92 140.31 137.28 138.76L151.94 124.16C153.49 125.79 154.41 127.81 154.68 129.89Z" fill="#FFFFFF" fill-opacity="1.000000" fill-rule="nonzero"/>
	<path id="Vector" d="M172.67 157.17L170.41 159.42C169.97 159.86 169.25 159.86 168.81 159.42L158.13 148.78C157.68 148.34 157.68 147.62 158.13 147.17L160.38 144.93C160.82 144.49 161.55 144.49 161.99 144.93L172.67 155.57C173.11 156.01 173.11 156.73 172.67 157.17Z" fill="#FFFFFF" fill-opacity="1.000000" fill-rule="nonzero"/>
	<path id="Vector" d="M167.02 157.64L168.81 159.42C169.25 159.86 169.97 159.86 170.42 159.42L172.67 157.17C173.11 156.73 173.11 156.01 172.67 155.57L170.89 153.79L167.02 157.64Z" fill="#81C2FF" fill-opacity="1.000000" fill-rule="nonzero"/>
	<path id="Vector" d="M159.68 150.34L163.55 146.49L166.1 149.03L162.23 152.88L159.68 150.34Z" fill="#81C2FF" fill-opacity="1.000000" fill-rule="nonzero"/>
	<path id="Vector" d="M143.61 135.02C143.26 135.02 142.97 134.73 142.97 134.38L142.97 133.61C142.97 133.11 143.1 132.62 143.35 132.18C143.73 131.52 144.37 131.03 145.11 130.84C146.23 130.54 147.02 129.52 147.02 128.36C147.02 127.67 146.74 127.01 146.24 126.53C145.74 126.04 145.08 125.79 144.37 125.81C143.03 125.84 141.91 126.96 141.88 128.3C141.87 128.58 141.91 128.86 141.99 129.12C142.1 129.46 141.91 129.82 141.57 129.93C141.23 130.03 140.87 129.84 140.76 129.5C140.64 129.11 140.58 128.69 140.59 128.28C140.64 126.23 142.28 124.58 144.34 124.52C145.39 124.49 146.38 124.88 147.14 125.61C147.89 126.34 148.3 127.32 148.3 128.36C148.3 130.1 147.12 131.63 145.43 132.08C145.03 132.18 144.68 132.45 144.47 132.82C144.33 133.06 144.26 133.33 144.26 133.61L144.26 134.38C144.26 134.73 143.97 135.02 143.61 135.02Z" fill="#2C80FF" fill-opacity="0" fill-rule="nonzero"/>
	<path id="Vector" d="M143.61 135.02C143.26 135.02 142.97 134.73 142.97 134.38L142.97 133.61C142.97 133.11 143.1 132.62 143.35 132.18C143.73 131.52 144.37 131.03 145.11 130.84C146.23 130.54 147.02 129.52 147.02 128.36C147.02 127.67 146.74 127.01 146.24 126.53C145.74 126.04 145.08 125.79 144.37 125.81C143.03 125.84 141.91 126.96 141.88 128.3C141.87 128.58 141.91 128.86 141.99 129.12C142.1 129.46 141.91 129.82 141.57 129.93C141.23 130.03 140.87 129.84 140.76 129.5C140.64 129.11 140.58 128.69 140.59 128.28C140.64 126.23 142.28 124.58 144.34 124.52C145.39 124.49 146.38 124.88 147.14 125.61C147.89 126.34 148.3 127.32 148.3 128.36C148.3 130.1 147.12 131.63 145.43 132.08C145.03 132.18 144.68 132.45 144.47 132.82C144.33 133.06 144.26 133.33 144.26 133.61L144.26 134.38C144.26 134.73 143.97 135.02 143.61 135.02Z" fill="#5A5A5A" fill-opacity="1.000000" fill-rule="nonzero"/>
	<path id="Vector" d="M143.61 137.48C143.26 137.48 142.97 137.2 142.97 136.84L142.97 136.83C142.97 136.47 143.26 136.18 143.61 136.18C143.97 136.18 144.26 136.47 144.26 136.83L144.26 136.84C144.26 137.2 143.97 137.48 143.61 137.48Z" fill="#2C80FF" fill-opacity="0" fill-rule="nonzero"/>
	<path id="Vector" d="M143.61 137.48C143.26 137.48 142.97 137.2 142.97 136.84L142.97 136.83C142.97 136.47 143.26 136.18 143.61 136.18C143.97 136.18 144.26 136.47 144.26 136.83L144.26 136.84C144.26 137.2 143.97 137.48 143.61 137.48Z" fill="#5A5A5A" fill-opacity="1.000000" fill-rule="nonzero"/>
	<path id="Vector" d="M173.12 155.11L162.78 144.81C162.13 144.16 161.65 143.99 161.49 143.98C161.39 143.96 161.29 143.95 161.18 143.95C160.96 143.95 160.74 144 160.54 144.08L156.11 139.66C160.18 134.05 159.68 126.15 154.61 121.1C148.99 115.5 139.83 115.5 134.21 121.1C131.49 123.81 129.99 127.42 129.99 131.26C129.99 135.11 131.49 138.72 134.21 141.42C137.02 144.23 140.72 145.63 144.41 145.63C147.37 145.63 150.33 144.73 152.84 142.92L157.27 147.33C157.19 147.54 157.15 147.75 157.15 147.98C157.15 148.45 157.33 148.9 157.67 149.23L161.49 153.04L168.35 159.87C168.69 160.21 169.13 160.39 169.61 160.39C170.09 160.39 170.53 160.21 170.87 159.87L173.12 157.63C173.82 156.93 173.82 155.81 173.12 155.11ZM131.28 131.26C131.28 134.76 132.64 138.05 135.12 140.52C140.24 145.62 148.58 145.62 153.7 140.52C158.82 135.42 158.82 127.11 153.7 122.01C151.14 119.46 147.77 118.18 144.41 118.18C141.04 118.18 137.68 119.46 135.12 122.01C132.64 124.48 131.28 127.76 131.28 131.26ZM155.31 140.68C155.09 140.93 154.85 141.18 154.61 141.42C154.37 141.67 154.12 141.9 153.86 142.12L158.07 146.32L159.52 144.88L155.31 140.68ZM169.96 158.96L172.21 156.72C172.41 156.53 172.41 156.21 172.21 156.02L161.53 145.38C161.44 145.29 161.32 145.24 161.18 145.24C161.05 145.24 160.93 145.29 160.83 145.38L158.58 147.63C158.49 147.72 158.44 147.84 158.44 147.98C158.44 148.11 158.49 148.23 158.58 148.32L169.26 158.96C169.45 159.15 169.77 159.15 169.96 158.96Z" fill="#3A85F4" fill-opacity="1.000000" fill-rule="evenodd"/>
	<ellipse id="Ellipse 39" cx="154.243164" cy="63.898438" rx="3.319130" ry="3.310240" fill="#3A85F4" fill-opacity="1.000000"/>
	<path id="Intersect" d="M154.025 73.5283C152.112 73.5266 150.331 72.9641 148.838 71.9971C148.981 70.4509 149.675 68.5598 151.71 67.8105C152.467 68.374 154.529 69.1628 156.718 67.8105C157.663 68.1228 159.304 69.304 159.618 71.731C158.05 72.8604 156.124 73.5264 154.042 73.5283L154.025 73.5283Z" clip-rule="evenodd" fill="#3A85F4" fill-opacity="1.000000" fill-rule="evenodd"/>
	<ellipse id="Ellipse 39" cx="70.127930" cy="75.295410" rx="3.319130" ry="3.310240" fill="#3A85F4" fill-opacity="1.000000"/>
	<path id="Intersect" d="M69.8882 84.9253C67.9834 84.9194 66.2104 84.3577 64.7227 83.394C64.8657 81.8481 65.5596 79.957 67.5947 79.2075C68.3521 79.771 70.4141 80.5598 72.603 79.2075C73.5474 79.5198 75.1885 80.7009 75.5029 83.1279C73.9399 84.2534 72.0215 84.9189 69.9478 84.9253L69.8882 84.9253Z" clip-rule="evenodd" fill="#3A85F4" fill-opacity="1.000000" fill-rule="evenodd"/>
</svg>
