<svg width="225.000000" height="225.000000" viewBox="0 0 225 225" fill="none" xmlns="http://www.w3.org/2000/svg" xmlns:xlink="http://www.w3.org/1999/xlink">
	<desc>
			Created with Pixso.
	</desc>
	<defs>
		<filter id="filter_73_3372_dd" x="0.000000" y="0.000000" width="225.000000" height="225.000000" filterUnits="userSpaceOnUse" color-interpolation-filters="sRGB">
			<feFlood flood-opacity="0" result="BackgroundImageFix"/>
			<feColorMatrix in="SourceAlpha" type="matrix" values="0 0 0 0 0 0 0 0 0 0 0 0 0 0 0 0 0 0 127 0" result="hardAlpha"/>
			<feOffset dx="0" dy="8"/>
			<feGaussianBlur stdDeviation="7.66667"/>
			<feComposite in2="hardAlpha" operator="out" k2="-1" k3="1"/>
			<feColorMatrix type="matrix" values="0 0 0 0 0.17255 0 0 0 0 0.50196 0 0 0 0 1 0 0 0 0.2 0"/>
			<feBlend mode="normal" in2="BackgroundImageFix" result="effect_dropShadow_1"/>
			<feBlend mode="normal" in="SourceGraphic" in2="effect_dropShadow_1" result="shape"/>
		</filter>
		<linearGradient x1="57.981136" y1="101.483025" x2="176.427689" y2="101.483025" id="paint_linear_73_3377_0" gradientUnits="userSpaceOnUse">
			<stop stop-color="#6EBDFE" stop-opacity="0.000000"/>
			<stop offset="1.000000" stop-color="#6EBDFE"/>
		</linearGradient>
	</defs>
	<g filter="url(#filter_73_3372_dd)">
		<rect id="Rectangle 54" x="23.000000" y="15.000000" rx="14.000000" width="179.000000" height="179.000000" fill="#FEFEFF" fill-opacity="1.000000"/>
	</g>
	<path id="Vector" d="M165.69 47.59C150.62 38.63 131.12 39.13 116.33 48.3C108.01 53.46 101.58 60.89 94.3 67.29C87.91 72.9 80.48 76.9 73.89 82.19C49.97 101.37 52.25 153.12 85.93 159.99C100.53 162.97 120.49 163.93 129.07 149.71C137.25 136.15 139.99 122.28 155.98 115.08C161.55 112.57 170.86 112.69 174.64 107.19C179.4 100.25 173.49 93.04 170.34 86.99C166.27 79.2 165.42 71.51 168.28 63.15C170.71 56.03 172.43 52.83 165.69 47.59Z" fill="url(#paint_linear_73_3377_0)" fill-opacity="1.000000" fill-rule="nonzero"/>
	<g opacity="0.100000">
		<path id="Vector" d="M145.37 113.56C135.6 113.56 127.25 119.62 123.89 128.18C123.86 128.17 123.84 128.16 123.82 128.15L110.9 124.38C111.68 122.08 112.1 119.62 112.1 117.06C112.1 111.12 109.84 105.7 106.13 101.62L120.22 92.06C120.24 92.05 120.25 92.04 120.27 92.02C124.49 97.31 131.01 100.71 138.32 100.71C151.06 100.71 161.39 90.4 161.39 77.7C161.39 64.99 151.06 54.69 138.32 54.69C125.58 54.69 115.25 64.99 115.25 77.7C115.25 82.27 116.59 86.53 118.89 90.11L118.89 90.11L104.64 99.78C104.57 99.83 104.5 99.89 104.45 99.95C100.36 96.28 94.96 94.05 89.03 94.05C76.29 94.05 65.96 104.36 65.96 117.06C65.96 129.77 76.29 140.07 89.03 140.07C98.37 140.07 106.41 134.53 110.04 126.57C110.08 126.59 110.12 126.61 110.17 126.63L123.14 130.41C122.6 132.37 122.3 134.44 122.3 136.57C122.3 149.28 132.63 159.58 145.37 159.58C158.11 159.58 168.44 149.28 168.44 136.57C168.44 123.87 158.11 113.56 145.37 113.56Z" fill="#3A85F4" fill-opacity="1.000000" fill-rule="nonzero"/>
	</g>
	<path id="Vector" d="M161.39 72.04C161.39 84.75 151.06 95.05 138.32 95.05C125.58 95.05 115.25 84.75 115.25 72.04C115.25 59.34 125.58 49.03 138.32 49.03C151.06 49.03 161.39 59.34 161.39 72.04Z" fill="#D4EBFF" fill-opacity="1.000000" fill-rule="evenodd"/>
	<path id="Vector" d="M112.1 111.41C112.1 124.11 101.77 134.41 89.03 134.41C76.29 134.41 65.96 124.11 65.96 111.41C65.96 98.7 76.29 88.4 89.03 88.4C101.77 88.4 112.1 98.7 112.1 111.41Z" fill="#D4EBFF" fill-opacity="1.000000" fill-rule="evenodd"/>
	<path id="Vector" d="M168.44 130.92C168.44 143.62 158.11 153.92 145.37 153.92C132.63 153.92 122.3 143.62 122.3 130.92C122.3 118.21 132.63 107.91 145.37 107.91C158.11 107.91 168.44 118.21 168.44 130.92Z" fill="#D4EBFF" fill-opacity="1.000000" fill-rule="evenodd"/>
	<path id="Vector" d="M93.35 74.52C92.7 74.52 92.17 73.99 92.17 73.34C92.17 72.56 91.54 71.92 90.75 71.92C90.1 71.92 89.57 71.4 89.57 70.74C89.57 70.09 90.1 69.57 90.75 69.57C91.54 69.57 92.17 68.93 92.17 68.15C92.17 67.5 92.7 66.97 93.35 66.97C94.01 66.97 94.54 67.5 94.54 68.15C94.54 68.93 95.17 69.57 95.95 69.57C96.61 69.57 97.13 70.09 97.13 70.74C97.13 71.4 96.61 71.92 95.95 71.92C95.17 71.92 94.54 72.56 94.54 73.34C94.54 73.99 94.01 74.52 93.35 74.52Z" fill="#81C2FF" fill-opacity="1.000000" fill-rule="nonzero"/>
	<path id="Vector" d="M163.94 98.87C163.28 98.87 162.76 98.34 162.76 97.69C162.76 96.91 162.12 96.28 161.34 96.28C160.69 96.28 160.16 95.75 160.16 95.1C160.16 94.45 160.69 93.92 161.34 93.92C162.12 93.92 162.76 93.29 162.76 92.51C162.76 91.86 163.28 91.33 163.94 91.33C164.59 91.33 165.12 91.86 165.12 92.51C165.12 93.29 165.76 93.92 166.54 93.92C167.19 93.92 167.72 94.45 167.72 95.1C167.72 95.75 167.19 96.28 166.54 96.28C165.76 96.28 165.12 96.91 165.12 97.69C165.12 98.34 164.59 98.87 163.94 98.87Z" fill="#D4EBFF" fill-opacity="1.000000" fill-rule="nonzero"/>
	<path id="Vector" d="M101.13 147.36C100.48 147.36 99.95 146.83 99.95 146.18C99.95 145.4 99.32 144.76 98.53 144.76C97.88 144.76 97.35 144.24 97.35 143.58C97.35 142.93 97.88 142.41 98.53 142.41C99.32 142.41 99.95 141.77 99.95 140.99C99.95 140.34 100.48 139.81 101.13 139.81C101.79 139.81 102.31 140.34 102.31 140.99C102.31 141.77 102.95 142.41 103.73 142.41C104.39 142.41 104.91 142.93 104.91 143.58C104.91 144.24 104.39 144.76 103.73 144.76C102.95 144.76 102.31 145.4 102.31 146.18C102.31 146.83 101.79 147.36 101.13 147.36Z" fill="#81C2FF" fill-opacity="1.000000" fill-rule="nonzero"/>
	<path id="Vector" d="M102.1 81.35C101.79 81.35 101.49 81.24 101.26 81.01L98.66 78.41C98.2 77.95 98.2 77.21 98.66 76.75L101.26 74.15C101.72 73.69 102.47 73.69 102.93 74.15L105.53 76.75C105.99 77.21 105.99 77.95 105.53 78.41L102.93 81.01C102.7 81.24 102.4 81.35 102.1 81.35ZM101.17 77.58L102.1 78.51L103.02 77.58L102.1 76.65L101.17 77.58Z" fill="#D4EBFF" fill-opacity="1.000000" fill-rule="nonzero"/>
	<path id="Vector" d="M114.7 150.48C114.39 150.48 114.09 150.37 113.86 150.14L111.26 147.55C110.8 147.09 110.8 146.34 111.26 145.88L113.86 143.29C114.32 142.83 115.07 142.83 115.53 143.29L118.13 145.88C118.59 146.34 118.59 147.09 118.13 147.55L115.53 150.14C115.3 150.37 115 150.48 114.7 150.48ZM113.77 146.71L114.7 147.64L115.63 146.71L114.7 145.79L113.77 146.71Z" fill="#9ED0FF" fill-opacity="1.000000" fill-rule="nonzero"/>
	<path id="Vector" d="M52.35 126.45C52.05 126.45 51.74 126.34 51.51 126.11L48.91 123.51C48.45 123.05 48.45 122.31 48.91 121.85L51.51 119.25C51.97 118.79 52.72 118.79 53.18 119.25L55.78 121.85C56.25 122.31 56.25 123.05 55.78 123.51L53.18 126.11C52.95 126.34 52.65 126.45 52.35 126.45ZM51.42 122.68L52.35 123.61L53.28 122.68L52.35 121.75L51.42 122.68Z" fill="#81C2FF" fill-opacity="1.000000" fill-rule="nonzero"/>
	<path id="Vector 10" d="M105.43 94.77L119.22 85.39" stroke="#5A5A5A" stroke-opacity="1.000000" stroke-width="3.000000"/>
	<path id="Vector" d="M89.03 135.59C98.88 135.59 107.38 129.7 111.17 121.26C111.34 120.93 111.74 120.02 112.03 119.06C112.84 116.65 113.28 114.08 113.28 111.41C113.28 105.23 110.94 99.58 107.1 95.3C106.91 95.09 105.9 94.07 105.42 93.6C101.1 89.64 95.34 87.22 89.03 87.22C75.65 87.22 64.78 98.07 64.78 111.41C64.78 124.74 75.65 135.59 89.03 135.59ZM117.92 85.12C118.32 85.68 119.15 86.85 119.3 87.03C123.74 92.63 130.62 96.23 138.32 96.23C144.09 96.23 149.68 94.17 154.06 90.44C158.39 86.74 161.3 81.64 162.23 76.06C162.34 75.42 161.9 74.81 161.26 74.7C160.62 74.6 160.01 75.03 159.9 75.67C159.06 80.7 156.44 85.31 152.53 88.64C148.57 92.01 143.53 93.87 138.32 93.87C126.25 93.87 116.43 84.08 116.43 72.04C116.43 60.01 126.25 50.21 138.32 50.21C148.92 50.21 157.98 57.75 159.85 68.14C159.97 68.78 160.58 69.21 161.23 69.09C161.87 68.98 162.3 68.36 162.18 67.72C160.1 56.21 150.06 47.86 138.32 47.86C124.94 47.86 114.06 58.71 114.06 72.04C114.06 76.85 115.48 81.34 117.92 85.12ZM121.12 130.92C121.12 128.7 121.42 126.52 122 124.42C122.08 124.01 122.53 122.76 122.75 122.19C123.45 120.39 124.36 118.67 125.49 117.06C125.87 116.53 126.6 116.4 127.14 116.77C127.67 117.15 127.8 117.88 127.43 118.41C124.85 122.09 123.48 126.41 123.48 130.92C123.48 142.95 133.3 152.74 145.37 152.74C157.44 152.74 167.26 142.95 167.26 130.92C167.26 118.88 157.44 109.09 145.37 109.09C140.82 109.09 136.46 110.47 132.75 113.08C132.22 113.45 131.48 113.33 131.11 112.8C130.73 112.26 130.86 111.53 131.39 111.15C135.49 108.26 140.33 106.73 145.37 106.73C158.74 106.73 169.62 117.58 169.62 130.92C169.62 144.25 158.74 155.1 145.37 155.1C132 155.1 121.12 144.25 121.12 130.92ZM89.03 89.58C101.1 89.58 110.91 99.37 110.91 111.41C110.91 123.44 101.1 133.23 89.03 133.23C76.96 133.23 67.14 123.44 67.14 111.41C67.14 99.37 76.96 89.58 89.03 89.58Z" fill="#3A85F4" fill-opacity="1.000000" fill-rule="evenodd"/>
	<ellipse id="Ellipse 40" cx="138.311035" cy="71.649902" rx="17.813633" ry="17.765919" fill="#FFFFFF" fill-opacity="1.000000"/>
	<ellipse id="Ellipse 42" cx="88.567383" cy="111.204102" rx="17.813633" ry="17.765919" fill="#FFFFFF" fill-opacity="1.000000"/>
	<ellipse id="Ellipse 43" cx="145.034180" cy="130.646240" rx="17.813633" ry="17.765919" fill="#FFFFFF" fill-opacity="1.000000"/>
	<ellipse id="Ellipse 39" cx="145.416504" cy="130.451416" rx="6.190609" ry="6.174026" fill="#3A85F4" fill-opacity="1.000000"/>
	<path id="Intersect" d="M144.955 148.412C141.412 148.396 138.112 147.349 135.344 145.555C135.611 142.672 136.906 139.145 140.701 137.748C142.114 138.799 145.959 140.27 150.042 137.748C151.804 138.33 154.865 140.533 155.451 145.061C152.542 147.155 148.974 148.395 145.116 148.412L144.955 148.412Z" clip-rule="evenodd" fill="#3A85F4" fill-opacity="1.000000" fill-rule="evenodd"/>
	<ellipse id="Ellipse 39" cx="88.894043" cy="111.009277" rx="6.190609" ry="6.174026" fill="#3A85F4" fill-opacity="1.000000"/>
	<path id="Intersect" d="M98.9297 125.618C96 127.727 92.4023 128.97 88.5132 128.97C84.9399 128.97 81.6123 127.921 78.8232 126.114C79.0898 123.231 80.3843 119.704 84.1807 118.306C85.5928 119.357 89.4385 120.828 93.5215 118.306C95.2827 118.888 98.3438 121.091 98.9297 125.618Z" clip-rule="evenodd" fill="#3A85F4" fill-opacity="1.000000" fill-rule="evenodd"/>
	<ellipse id="Ellipse 39" cx="138.640137" cy="71.454834" rx="6.190609" ry="6.174026" fill="#3A85F4" fill-opacity="1.000000"/>
	<path id="Intersect" d="M138.211 89.4158C134.654 89.4067 131.342 88.3584 128.565 86.5586C128.832 83.6755 130.126 80.1489 133.922 78.7515C135.334 79.8025 139.18 81.2737 143.263 78.7515C145.024 79.3337 148.086 81.5371 148.671 86.0649C145.753 88.165 142.173 89.406 138.302 89.4158L138.211 89.4158Z" clip-rule="evenodd" fill="#3A85F4" fill-opacity="1.000000" fill-rule="evenodd"/>
	<path id="Vector 11" d="M111.49 120.25L122.25 123.6" stroke="#5A5A5A" stroke-opacity="1.000000" stroke-width="3.000000"/>
</svg>
