<svg width="225.000000" height="225.000000" viewBox="0 0 225 225" fill="none" xmlns="http://www.w3.org/2000/svg" xmlns:xlink="http://www.w3.org/1999/xlink">
	<desc>
			Created with Pixso.
	</desc>
	<defs>
		<filter id="filter_73_3475_dd" x="0.000000" y="0.000000" width="225.000000" height="225.000000" filterUnits="userSpaceOnUse" color-interpolation-filters="sRGB">
			<feFlood flood-opacity="0" result="BackgroundImageFix"/>
			<feColorMatrix in="SourceAlpha" type="matrix" values="0 0 0 0 0 0 0 0 0 0 0 0 0 0 0 0 0 0 127 0" result="hardAlpha"/>
			<feOffset dx="0" dy="8"/>
			<feGaussianBlur stdDeviation="7.66667"/>
			<feComposite in2="hardAlpha" operator="out" k2="-1" k3="1"/>
			<feColorMatrix type="matrix" values="0 0 0 0 0.17255 0 0 0 0 0.50196 0 0 0 0 1 0 0 0 0.2 0"/>
			<feBlend mode="normal" in2="BackgroundImageFix" result="effect_dropShadow_1"/>
			<feBlend mode="normal" in="SourceGraphic" in2="effect_dropShadow_1" result="shape"/>
		</filter>
		<linearGradient x1="107.492111" y1="81.671448" x2="119.291992" y2="137.457962" id="paint_linear_73_3478_0" gradientUnits="userSpaceOnUse">
			<stop stop-color="#77C2FE" stop-opacity="0.000000"/>
			<stop offset="1.000000" stop-color="#77C2FE"/>
		</linearGradient>
	</defs>
	<g filter="url(#filter_73_3475_dd)">
		<rect id="Rectangle 56" x="23.000000" y="15.000000" rx="14.000000" width="179.000000" height="179.000000" fill="#FEFEFF" fill-opacity="1.000000"/>
	</g>
	<path id="Vector" d="M166.31 80.96C161.42 68.66 146.38 61.29 133.63 66.17C119.08 71.74 123.9 94.64 110.69 99.27C103.55 101.77 93 92.43 85.79 91C72.5 88.36 60.46 97.63 57.5 110.49C54.48 123.59 59.33 141.1 73.88 144.66C91.22 148.9 100.25 133.48 114.8 129.05C129.73 124.5 146.32 135.24 158.68 122.18C167.81 112.53 171.15 93.14 166.31 80.96Z" fill="url(#paint_linear_73_3478_0)" fill-opacity="1.000000" fill-rule="nonzero"/>
	<g opacity="0.110000">
		<path id="Vector" d="M129.79 61.51L84.78 61.51C82.24 61.51 80.19 63.55 80.19 66.05L80.19 80.91C76.6 81.92 73.97 85.19 73.97 89.06C73.97 92.93 76.6 96.19 80.19 97.2L80.19 152.98C80.19 155.48 82.24 157.52 84.78 157.52L129.79 157.52C132.33 157.52 134.38 155.48 134.38 152.98L134.38 66.05C134.38 63.55 132.33 61.51 129.79 61.51Z" fill="#3A85F4" fill-opacity="1.000000" fill-rule="nonzero"/>
	</g>
	<path id="Vector" d="M139.63 61.51L139.63 148.44C139.63 150.94 137.57 152.98 135.04 152.98L90.02 152.98C87.49 152.98 85.43 150.94 85.43 148.44L85.43 61.51C85.43 59.01 87.49 56.97 90.02 56.97L135.04 56.97C137.57 56.97 139.63 59.01 139.63 61.51Z" fill="#FFFFFF" fill-opacity="1.000000" fill-rule="nonzero"/>
	<path id="Vector" d="M139.63 68.65L139.63 61.51C139.63 59.01 137.57 56.97 135.04 56.97L90.02 56.97C87.49 56.97 85.43 59.01 85.43 61.51L85.43 68.65L139.63 68.65Z" fill="#D4EBFF" fill-opacity="1.000000" fill-rule="nonzero"/>
	<path id="Vector" d="M94.32 63.07C94.32 63.74 93.78 64.28 93.1 64.28C92.43 64.28 91.88 63.74 91.88 63.07C91.88 62.4 92.43 61.86 93.1 61.86C93.78 61.86 94.32 62.4 94.32 63.07Z" fill="#FFFFFF" fill-opacity="1.000000" fill-rule="evenodd"/>
	<path id="Vector" d="M98.67 63.07C98.67 63.74 98.13 64.28 97.45 64.28C96.78 64.28 96.23 63.74 96.23 63.07C96.23 62.4 96.78 61.86 97.45 61.86C98.13 61.86 98.67 62.4 98.67 63.07Z" fill="#FFFFFF" fill-opacity="1.000000" fill-rule="evenodd"/>
	<path id="Vector" d="M101.8 61.86C102.48 61.86 103.02 62.4 103.02 63.07C103.02 63.74 102.48 64.28 101.8 64.28C101.13 64.28 100.58 63.74 100.58 63.07C100.58 62.4 101.13 61.86 101.8 61.86Z" fill="#FFFFFF" fill-opacity="1.000000" fill-rule="nonzero"/>
	<path id="Vector" d="M93.64 85.74C93.64 90.43 89.8 94.23 85.07 94.23C80.33 94.23 76.49 90.43 76.49 85.74C76.49 81.06 80.33 77.26 85.07 77.26C89.8 77.26 93.64 81.06 93.64 85.74Z" fill="#D4EBFF" fill-opacity="1.000000" fill-rule="evenodd"/>
	<path id="Vector" d="M111.38 110.87L111.38 130.95C111.38 131.86 110.88 132.6 110.26 132.6L104.68 132.6C104.06 132.6 103.56 131.86 103.56 130.95L103.56 110.87C103.56 109.96 104.06 109.22 104.68 109.22L110.26 109.22C110.88 109.22 111.38 109.96 111.38 110.87Z" fill="#D4EBFF" fill-opacity="1.000000" fill-rule="nonzero"/>
	<path id="Vector" d="M99.95 114.21L99.95 131.2C99.95 131.97 99.45 132.6 98.84 132.6L93.25 132.6C92.63 132.6 92.13 131.97 92.13 131.2L92.13 114.21C92.13 113.44 92.63 112.82 93.25 112.82L98.84 112.82C99.45 112.82 99.95 113.44 99.95 114.21Z" fill="#D4EBFF" fill-opacity="1.000000" fill-rule="nonzero"/>
	<path id="Vector" d="M122.21 104.31L122.21 131.52C122.21 132.44 121.71 133.19 121.09 133.19L115.51 133.19C114.89 133.19 114.39 132.44 114.39 131.52L114.39 104.31C114.39 103.38 114.89 102.63 115.51 102.63L121.09 102.63C121.71 102.63 122.21 103.38 122.21 104.31Z" fill="#D4EBFF" fill-opacity="1.000000" fill-rule="nonzero"/>
	<path id="Vector" d="M133.03 98.64L133.03 131.19C133.03 131.97 132.53 132.6 131.92 132.6L126.33 132.6C125.72 132.6 125.22 131.97 125.22 131.19L125.22 98.64C125.22 97.87 125.72 97.24 126.33 97.24L131.92 97.24C132.53 97.24 133.03 97.87 133.03 98.64Z" fill="#D4EBFF" fill-opacity="1.000000" fill-rule="nonzero"/>
	<path id="Vector" d="M104.52 76.26L120.58 76.26C121.1 76.26 121.59 75.91 121.69 75.4C121.83 74.71 121.3 74.1 120.62 74.1L104.48 74.1C103.8 74.1 103.27 74.71 103.41 75.4C103.51 75.91 103.99 76.26 104.52 76.26Z" fill="#5A5A5A" fill-opacity="1.000000" fill-rule="nonzero"/>
	<path id="Vector" d="M113.57 83.94L124.03 83.94C124.37 83.94 124.68 83.62 124.75 83.16C124.84 82.52 124.5 81.97 124.06 81.97L113.54 81.97C113.1 81.97 112.76 82.52 112.85 83.16C112.91 83.62 113.23 83.94 113.57 83.94Z" fill="#5A5A5A" fill-opacity="1.000000" fill-rule="nonzero"/>
	<path id="Vector" d="M98.99 80L114.24 80C114.74 80 115.2 79.68 115.29 79.22C115.43 78.59 114.92 78.03 114.28 78.03L98.95 78.03C98.31 78.03 97.8 78.59 97.93 79.22C98.03 79.68 98.49 80 98.99 80Z" fill="#5A5A5A" fill-opacity="1.000000" fill-rule="nonzero"/>
	<path id="Vector" d="M117.92 80L126.64 80C126.92 80 127.18 79.68 127.24 79.22C127.31 78.59 127.03 78.03 126.66 78.03L117.9 78.03C117.53 78.03 117.24 78.59 117.32 79.22C117.37 79.68 117.64 80 117.92 80Z" fill="#5A5A5A" fill-opacity="1.000000" fill-rule="nonzero"/>
	<path id="Vector" d="M101.51 83.94L110.23 83.94C110.51 83.94 110.77 83.62 110.83 83.16C110.91 82.52 110.62 81.97 110.25 81.97L101.49 81.97C101.12 81.97 100.83 82.52 100.91 83.16C100.97 83.62 101.23 83.94 101.51 83.94Z" fill="#5A5A5A" fill-opacity="1.000000" fill-rule="nonzero"/>
	<path id="Vector" d="M135.25 154.06L123.14 154.06C123.08 154.06 123.03 154.03 122.98 154C121.98 153.05 122.64 151.89 123.58 151.89L134.45 151.89C136.7 151.89 138.53 150.09 138.53 147.86L138.53 92.32C138.53 92.26 138.55 92.2 138.59 92.16C139.55 91.17 140.72 91.82 140.72 92.75L140.72 148.65C140.72 151.64 138.27 154.06 135.25 154.06Z" fill="#3A85F4" fill-opacity="1.000000" fill-rule="nonzero"/>
	<path id="Vector" d="M112.58 146.82C112.29 146.82 112.01 146.71 111.81 146.51L110.54 145.24C110.11 144.82 110.11 144.14 110.54 143.72C110.96 143.29 111.66 143.29 112.08 143.72L112.58 144.21L113.08 143.72C113.51 143.29 114.2 143.29 114.63 143.72C115.06 144.14 115.06 144.82 114.63 145.24L113.36 146.51C113.15 146.71 112.87 146.82 112.58 146.82Z" fill="#3A85F4" fill-opacity="1.000000" fill-rule="nonzero"/>
	<path id="Vector" d="M135.03 55.89L90.02 55.89C86.88 55.89 84.34 58.41 84.34 61.51L84.34 76.11C79.3 76.43 75.3 80.58 75.3 85.65C75.3 90.71 79.3 94.87 84.34 95.19L84.34 148.73C84.34 151.67 86.75 154.06 89.72 154.06L117.79 154.06C117.85 154.06 117.91 154.03 117.95 154C118.95 153.05 118.29 151.89 117.36 151.89L90.02 151.89C88.09 151.89 86.52 150.35 86.52 148.44L86.52 95.12C91.12 94.39 94.63 90.44 94.63 85.69C94.63 80.94 91.12 76.99 86.52 76.25L86.52 69.73L138.53 69.73L138.53 86.62C138.53 87.14 138.88 87.61 139.4 87.72C140.1 87.85 140.72 87.33 140.72 86.66L140.72 61.49C140.72 58.4 138.17 55.89 135.03 55.89ZM92.55 85.74C92.55 89.82 89.19 93.15 85.07 93.15C80.94 93.15 77.58 89.82 77.58 85.74C77.58 81.66 80.94 78.34 85.07 78.34C89.19 78.34 92.55 81.66 92.55 85.74ZM138.53 67.57L86.52 67.57L86.52 61.51C86.52 59.6 88.09 58.05 90.02 58.05L135.03 58.05C136.97 58.05 138.53 59.6 138.53 61.51L138.53 67.57Z" fill="#3A85F4" fill-opacity="1.000000" fill-rule="nonzero"/>
	<path id="Vector" d="M105.99 105.5L88.93 105.5C88.31 105.5 87.75 105.14 87.62 104.62C87.46 103.9 88.09 103.27 88.88 103.27L105.99 103.27C106.33 103.27 112.65 97.77 112.89 97.56L116.27 94.63C116.99 94 117.97 93.65 119 93.65L128.78 93.65C129.12 93.65 129.45 93.53 129.69 93.32L133.85 89.72C134.57 89.09 135.55 88.74 136.58 88.74L142.16 88.74C142.96 88.74 143.59 89.37 143.42 90.09C143.3 90.61 142.73 90.97 142.11 90.97L136.6 90.97C136.26 90.97 135.93 91.09 135.69 91.3L131.53 94.9C130.81 95.53 129.83 95.88 128.8 95.88L118.99 95.88C118.65 95.88 118.33 95.99 118.08 96.2L114.69 99.14C113.97 99.77 107.01 105.5 105.99 105.5Z" fill="#3A85F4" fill-opacity="1.000000" fill-rule="evenodd"/>
	<path id="Vector" d="M149.03 72.32L148.37 72.32L148.37 71.66C148.37 71.14 148.01 70.66 147.5 70.56C146.8 70.42 146.18 70.95 146.18 71.62L146.18 72.32L145.51 72.32C144.99 72.32 144.5 72.67 144.4 73.18C144.26 73.88 144.79 74.49 145.47 74.49L146.18 74.49L146.18 75.15C146.18 75.67 146.53 76.14 147.05 76.25C147.75 76.39 148.37 75.86 148.37 75.19L148.37 74.49L149.08 74.49C149.75 74.49 150.29 73.88 150.14 73.18C150.04 72.67 149.56 72.32 149.03 72.32Z" fill="#D4EBFF" fill-opacity="1.000000" fill-rule="nonzero"/>
	<path id="Vector" d="M155.37 131.79L154.7 131.79L154.7 131.12C154.7 130.6 154.35 130.13 153.84 130.02C153.13 129.89 152.52 130.41 152.52 131.08L152.52 131.79L151.85 131.79C151.32 131.79 150.84 132.13 150.74 132.64C150.6 133.34 151.13 133.95 151.81 133.95L152.52 133.95L152.52 134.61C152.52 135.13 152.87 135.61 153.38 135.71C154.09 135.85 154.7 135.32 154.7 134.65L154.7 133.95L155.41 133.95C156.09 133.95 156.62 133.34 156.48 132.64C156.38 132.13 155.89 131.79 155.37 131.79Z" fill="#D4EBFF" fill-opacity="1.000000" fill-rule="nonzero"/>
	<path id="Vector" d="M150.3 122.85C149.98 122.85 149.66 122.8 149.35 122.71C148.53 122.46 147.87 121.91 147.47 121.16C147.08 120.41 147 119.56 147.25 118.75C147.5 117.95 148.06 117.29 148.81 116.9C149.57 116.51 150.43 116.43 151.24 116.68C152.06 116.93 152.72 117.48 153.12 118.22C153.52 118.97 153.6 119.82 153.34 120.63C153.09 121.44 152.54 122.1 151.78 122.49C151.32 122.73 150.81 122.85 150.3 122.85ZM150.3 118.7C149.87 118.7 149.47 118.97 149.34 119.4C149.26 119.65 149.28 119.92 149.41 120.16C149.53 120.39 149.74 120.56 150 120.64C150.53 120.81 151.09 120.51 151.26 119.99C151.34 119.73 151.31 119.46 151.19 119.23C151.06 118.99 150.85 118.82 150.6 118.74C150.5 118.71 150.4 118.7 150.3 118.7Z" fill="#D4EBFF" fill-opacity="1.000000" fill-rule="nonzero"/>
	<path id="Vector" d="M70.26 108.89C69.95 108.89 69.63 108.85 69.31 108.75C68.5 108.5 67.83 107.95 67.44 107.2C67.04 106.46 66.96 105.6 67.21 104.8C67.47 103.99 68.02 103.33 68.78 102.94C69.53 102.55 70.39 102.47 71.21 102.72C72.89 103.24 73.83 105.01 73.31 106.67C73.05 107.48 72.5 108.14 71.75 108.53C71.28 108.77 70.77 108.89 70.26 108.89ZM70.26 104.74C70.1 104.74 69.94 104.78 69.79 104.85C69.55 104.98 69.38 105.18 69.3 105.44C69.14 105.96 69.43 106.52 69.96 106.68C70.22 106.76 70.49 106.74 70.73 106.62C70.97 106.49 71.14 106.28 71.22 106.03C71.39 105.51 71.09 104.95 70.56 104.78C70.46 104.75 70.36 104.74 70.26 104.74Z" fill="#81C2FF" fill-opacity="1.000000" fill-rule="nonzero"/>
	<path id="Vector" d="M78.08 114.91C77.76 114.91 77.44 114.87 77.13 114.77C75.45 114.25 74.51 112.48 75.03 110.82C75.28 110.01 75.84 109.35 76.59 108.96C77.35 108.57 78.21 108.49 79.03 108.74C79.84 108.99 80.51 109.54 80.9 110.29C81.3 111.03 81.38 111.89 81.12 112.69C80.7 114.04 79.44 114.91 78.08 114.91ZM78.08 110.76C77.92 110.76 77.76 110.8 77.61 110.87C77.37 111 77.2 111.21 77.12 111.46C76.95 111.98 77.25 112.54 77.78 112.71C78.31 112.87 78.87 112.57 79.04 112.05C79.12 111.8 79.09 111.53 78.97 111.29C78.84 111.06 78.63 110.88 78.38 110.8C78.28 110.77 78.18 110.76 78.08 110.76Z" fill="#81C2FF" fill-opacity="1.000000" fill-rule="nonzero"/>
	<path id="Star 1" d="M86.63 82.29C86.19 80.94 84.28 80.94 83.84 82.29C83.64 82.89 83.07 83.3 82.44 83.3L82.42 83.3C81.01 83.3 80.42 85.11 81.57 85.94C82.08 86.31 82.3 86.97 82.1 87.57L82.1 87.57C81.66 88.92 83.19 90.04 84.34 89.21L84.37 89.19C84.89 88.82 85.58 88.82 86.09 89.19L86.13 89.21C87.27 90.04 88.81 88.91 88.37 87.57C88.17 86.97 88.38 86.31 88.9 85.94C90.05 85.11 89.46 83.3 88.05 83.3L88.02 83.3C87.39 83.3 86.83 82.9 86.63 82.3L86.63 82.29Z" fill="#FFFFFF" fill-opacity="1.000000" fill-rule="evenodd"/>
</svg>
